<mxfile host="app.diagrams.net" modified="2023-10-26T11:28:13.493Z" agent="Mozilla/5.0 (Windows NT 10.0; Win64; x64) AppleWebKit/537.36 (KHTML, like Gecko) Chrome/118.0.0.0 Safari/537.36" etag="Ab-o22WQ9piYa-IZ6cng" version="22.0.8" type="github">
  <diagram id="R2lEEEUBdFMjLlhIrx00" name="Page-1">
    <mxGraphModel dx="1400" dy="753" grid="0" gridSize="10" guides="1" tooltips="1" connect="1" arrows="1" fold="1" page="1" pageScale="1" pageWidth="850" pageHeight="1100" background="none" math="0" shadow="0" extFonts="Permanent Marker^https://fonts.googleapis.com/css?family=Permanent+Marker">
      <root>
        <mxCell id="0" />
        <mxCell id="1" parent="0" />
        <mxCell id="gjVoSMf8RNLvs8cjZ1pJ-2" value="User" style="shape=umlActor;verticalLabelPosition=bottom;verticalAlign=top;html=1;outlineConnect=0;" vertex="1" parent="1">
          <mxGeometry x="77" y="625" width="50" height="100" as="geometry" />
        </mxCell>
        <mxCell id="gjVoSMf8RNLvs8cjZ1pJ-3" value="Register/Login/&lt;br&gt;Logout" style="ellipse;whiteSpace=wrap;html=1;" vertex="1" parent="1">
          <mxGeometry x="177" y="445" width="100" height="60" as="geometry" />
        </mxCell>
        <mxCell id="gjVoSMf8RNLvs8cjZ1pJ-4" value="Search Destination" style="ellipse;whiteSpace=wrap;html=1;" vertex="1" parent="1">
          <mxGeometry x="247" y="587.5" width="100" height="55" as="geometry" />
        </mxCell>
        <mxCell id="gjVoSMf8RNLvs8cjZ1pJ-5" value="Create/Modify itineraries" style="ellipse;whiteSpace=wrap;html=1;" vertex="1" parent="1">
          <mxGeometry x="227" y="515" width="100" height="60" as="geometry" />
        </mxCell>
        <mxCell id="gjVoSMf8RNLvs8cjZ1pJ-6" value="Book ground Transportation" style="ellipse;whiteSpace=wrap;html=1;" vertex="1" parent="1">
          <mxGeometry x="247" y="735" width="100" height="60" as="geometry" />
        </mxCell>
        <mxCell id="gjVoSMf8RNLvs8cjZ1pJ-7" value="Book Accommodation" style="ellipse;whiteSpace=wrap;html=1;" vertex="1" parent="1">
          <mxGeometry x="247" y="655" width="100" height="60" as="geometry" />
        </mxCell>
        <mxCell id="gjVoSMf8RNLvs8cjZ1pJ-8" value="Receive Notification" style="ellipse;whiteSpace=wrap;html=1;" vertex="1" parent="1">
          <mxGeometry x="227" y="805" width="100" height="60" as="geometry" />
        </mxCell>
        <mxCell id="gjVoSMf8RNLvs8cjZ1pJ-9" value="Update Profile" style="ellipse;whiteSpace=wrap;html=1;" vertex="1" parent="1">
          <mxGeometry x="177" y="875" width="100" height="55" as="geometry" />
        </mxCell>
        <mxCell id="gjVoSMf8RNLvs8cjZ1pJ-10" value="" style="endArrow=none;html=1;rounded=0;entryX=0.252;entryY=1.046;entryDx=0;entryDy=0;entryPerimeter=0;" edge="1" parent="1" target="gjVoSMf8RNLvs8cjZ1pJ-3">
          <mxGeometry width="50" height="50" relative="1" as="geometry">
            <mxPoint x="117" y="625" as="sourcePoint" />
            <mxPoint x="167" y="575" as="targetPoint" />
          </mxGeometry>
        </mxCell>
        <mxCell id="gjVoSMf8RNLvs8cjZ1pJ-11" value="" style="endArrow=none;html=1;rounded=0;exitX=0.04;exitY=0.963;exitDx=0;exitDy=0;exitPerimeter=0;" edge="1" parent="1" source="gjVoSMf8RNLvs8cjZ1pJ-5" target="gjVoSMf8RNLvs8cjZ1pJ-2">
          <mxGeometry width="50" height="50" relative="1" as="geometry">
            <mxPoint x="277" y="675" as="sourcePoint" />
            <mxPoint x="327" y="625" as="targetPoint" />
          </mxGeometry>
        </mxCell>
        <mxCell id="gjVoSMf8RNLvs8cjZ1pJ-13" value="" style="endArrow=none;html=1;rounded=0;entryX=0;entryY=0.5;entryDx=0;entryDy=0;" edge="1" parent="1" source="gjVoSMf8RNLvs8cjZ1pJ-2" target="gjVoSMf8RNLvs8cjZ1pJ-4">
          <mxGeometry width="50" height="50" relative="1" as="geometry">
            <mxPoint x="277" y="675" as="sourcePoint" />
            <mxPoint x="243" y="631" as="targetPoint" />
          </mxGeometry>
        </mxCell>
        <mxCell id="gjVoSMf8RNLvs8cjZ1pJ-14" value="" style="endArrow=none;html=1;rounded=0;entryX=0;entryY=0.5;entryDx=0;entryDy=0;" edge="1" parent="1" source="gjVoSMf8RNLvs8cjZ1pJ-2" target="gjVoSMf8RNLvs8cjZ1pJ-7">
          <mxGeometry width="50" height="50" relative="1" as="geometry">
            <mxPoint x="277" y="675" as="sourcePoint" />
            <mxPoint x="327" y="625" as="targetPoint" />
          </mxGeometry>
        </mxCell>
        <mxCell id="gjVoSMf8RNLvs8cjZ1pJ-15" value="" style="endArrow=none;html=1;rounded=0;" edge="1" parent="1" source="gjVoSMf8RNLvs8cjZ1pJ-2">
          <mxGeometry width="50" height="50" relative="1" as="geometry">
            <mxPoint x="277" y="675" as="sourcePoint" />
            <mxPoint x="237" y="755" as="targetPoint" />
          </mxGeometry>
        </mxCell>
        <mxCell id="gjVoSMf8RNLvs8cjZ1pJ-16" value="" style="endArrow=none;html=1;rounded=0;entryX=-0.024;entryY=0.308;entryDx=0;entryDy=0;entryPerimeter=0;" edge="1" parent="1" source="gjVoSMf8RNLvs8cjZ1pJ-2" target="gjVoSMf8RNLvs8cjZ1pJ-8">
          <mxGeometry width="50" height="50" relative="1" as="geometry">
            <mxPoint x="277" y="675" as="sourcePoint" />
            <mxPoint x="327" y="625" as="targetPoint" />
          </mxGeometry>
        </mxCell>
        <mxCell id="gjVoSMf8RNLvs8cjZ1pJ-17" value="" style="endArrow=none;html=1;rounded=0;entryX=0.049;entryY=0.033;entryDx=0;entryDy=0;entryPerimeter=0;" edge="1" parent="1" source="gjVoSMf8RNLvs8cjZ1pJ-2" target="gjVoSMf8RNLvs8cjZ1pJ-9">
          <mxGeometry width="50" height="50" relative="1" as="geometry">
            <mxPoint x="277" y="675" as="sourcePoint" />
            <mxPoint x="327" y="625" as="targetPoint" />
          </mxGeometry>
        </mxCell>
        <mxCell id="gjVoSMf8RNLvs8cjZ1pJ-19" value="Admin" style="shape=umlActor;verticalLabelPosition=bottom;verticalAlign=top;html=1;outlineConnect=0;strokeColor=default;align=center;fontFamily=Helvetica;fontSize=12;fontColor=default;fillColor=default;" vertex="1" parent="1">
          <mxGeometry x="660" y="620" width="49" height="100" as="geometry" />
        </mxCell>
        <mxCell id="gjVoSMf8RNLvs8cjZ1pJ-23" value="Manage&lt;br&gt;Itineraries" style="ellipse;whiteSpace=wrap;html=1;" vertex="1" parent="1">
          <mxGeometry x="500" y="560" width="100" height="60" as="geometry" />
        </mxCell>
        <mxCell id="gjVoSMf8RNLvs8cjZ1pJ-24" value="Update Profile" style="ellipse;whiteSpace=wrap;html=1;" vertex="1" parent="1">
          <mxGeometry x="550" y="775" width="100" height="60" as="geometry" />
        </mxCell>
        <mxCell id="gjVoSMf8RNLvs8cjZ1pJ-25" value="Login/Logout" style="ellipse;whiteSpace=wrap;html=1;" vertex="1" parent="1">
          <mxGeometry x="550" y="500" width="100" height="60" as="geometry" />
        </mxCell>
        <mxCell id="gjVoSMf8RNLvs8cjZ1pJ-26" value="Manage&lt;br&gt;Bookings" style="ellipse;whiteSpace=wrap;html=1;" vertex="1" parent="1">
          <mxGeometry x="470" y="640" width="100" height="60" as="geometry" />
        </mxCell>
        <mxCell id="gjVoSMf8RNLvs8cjZ1pJ-27" value="Generate Reports" style="ellipse;whiteSpace=wrap;html=1;" vertex="1" parent="1">
          <mxGeometry x="490" y="715" width="100" height="60" as="geometry" />
        </mxCell>
        <mxCell id="gjVoSMf8RNLvs8cjZ1pJ-28" value="" style="endArrow=none;html=1;rounded=0;fontFamily=Helvetica;fontSize=12;fontColor=default;entryX=0;entryY=0.3333333333333333;entryDx=0;entryDy=0;entryPerimeter=0;" edge="1" parent="1" target="gjVoSMf8RNLvs8cjZ1pJ-19">
          <mxGeometry width="50" height="50" relative="1" as="geometry">
            <mxPoint x="640" y="560" as="sourcePoint" />
            <mxPoint x="330" y="650" as="targetPoint" />
          </mxGeometry>
        </mxCell>
        <mxCell id="gjVoSMf8RNLvs8cjZ1pJ-29" value="" style="endArrow=none;html=1;rounded=0;fontFamily=Helvetica;fontSize=12;fontColor=default;" edge="1" parent="1" target="gjVoSMf8RNLvs8cjZ1pJ-19">
          <mxGeometry width="50" height="50" relative="1" as="geometry">
            <mxPoint x="590" y="610" as="sourcePoint" />
            <mxPoint x="330" y="650" as="targetPoint" />
          </mxGeometry>
        </mxCell>
        <mxCell id="gjVoSMf8RNLvs8cjZ1pJ-30" value="" style="endArrow=none;html=1;rounded=0;fontFamily=Helvetica;fontSize=12;fontColor=default;exitX=1.107;exitY=0.477;exitDx=0;exitDy=0;exitPerimeter=0;" edge="1" parent="1" source="gjVoSMf8RNLvs8cjZ1pJ-26" target="gjVoSMf8RNLvs8cjZ1pJ-19">
          <mxGeometry width="50" height="50" relative="1" as="geometry">
            <mxPoint x="590" y="670" as="sourcePoint" />
            <mxPoint x="330" y="650" as="targetPoint" />
          </mxGeometry>
        </mxCell>
        <mxCell id="gjVoSMf8RNLvs8cjZ1pJ-31" value="" style="endArrow=none;html=1;rounded=0;fontFamily=Helvetica;fontSize=12;fontColor=default;exitX=0.981;exitY=0.204;exitDx=0;exitDy=0;exitPerimeter=0;" edge="1" parent="1" source="gjVoSMf8RNLvs8cjZ1pJ-27" target="gjVoSMf8RNLvs8cjZ1pJ-19">
          <mxGeometry width="50" height="50" relative="1" as="geometry">
            <mxPoint x="280" y="700" as="sourcePoint" />
            <mxPoint x="330" y="650" as="targetPoint" />
          </mxGeometry>
        </mxCell>
        <mxCell id="gjVoSMf8RNLvs8cjZ1pJ-32" value="" style="endArrow=none;html=1;rounded=0;fontFamily=Helvetica;fontSize=12;fontColor=default;exitX=1;exitY=0;exitDx=0;exitDy=0;" edge="1" parent="1" source="gjVoSMf8RNLvs8cjZ1pJ-24">
          <mxGeometry width="50" height="50" relative="1" as="geometry">
            <mxPoint x="280" y="700" as="sourcePoint" />
            <mxPoint x="660" y="700" as="targetPoint" />
          </mxGeometry>
        </mxCell>
      </root>
    </mxGraphModel>
  </diagram>
</mxfile>
